<?xml version="1.0" encoding="UTF-8" standalone="no"?>
<svg
   xmlns:dc="http://purl.org/dc/elements/1.1/"
   xmlns:cc="http://creativecommons.org/ns#"
   xmlns:rdf="http://www.w3.org/1999/02/22-rdf-syntax-ns#"
   xmlns:svg="http://www.w3.org/2000/svg"
   xmlns="http://www.w3.org/2000/svg"
   xmlns:sodipodi="http://sodipodi.sourceforge.net/DTD/sodipodi-0.dtd"
   xmlns:inkscape="http://www.inkscape.org/namespaces/inkscape"
   fill="none"
   height="100%"
   width="100%"
   viewBox="0 0 640 1136"
   version="1.1"
   id="svg183"
   sodipodi:docname="animation.svg"
   inkscape:version="1.0.1 (3bc2e813f5, 2020-09-07)">
  <metadata
     id="metadata187">
    <rdf:RDF>
      <cc:Work
         rdf:about="">
        <dc:format>image/svg+xml</dc:format>
        <dc:type
           rdf:resource="http://purl.org/dc/dcmitype/StillImage" />
      </cc:Work>
    </rdf:RDF>
  </metadata>
  <sodipodi:namedview
     pagecolor="#ffffff"
     bordercolor="#666666"
     borderopacity="1"
     objecttolerance="10"
     gridtolerance="10"
     guidetolerance="10"
     inkscape:pageopacity="0"
     inkscape:pageshadow="2"
     inkscape:window-width="2560"
     inkscape:window-height="1377"
     id="namedview185"
     showgrid="false"
     inkscape:zoom="0.88732394"
     inkscape:cx="320"
     inkscape:cy="838.47619"
     inkscape:window-x="-8"
     inkscape:window-y="-8"
     inkscape:window-maximized="1"
     inkscape:current-layer="svg183" />
  <defs
     id="defs11">
    <linearGradient
       id="i0"
       gradientUnits="userSpaceOnUse"
       spreadMethod="pad"
       x2="233.482"
       y2="-2.733"
       x1="-150.672"
       y1="0">
      <stop
         stop-opacity="0"
         offset="0%"
         stop-color="#0033ff"
         id="stop2" />
      <stop
         stop-opacity="0.15"
         offset="44.9%"
         stop-color="#315aff"
         id="stop4" />
      <stop
         stop-opacity="0.167"
         offset="51.2%"
         stop-color="#3860ff"
         id="stop6" />
      <stop
         stop-opacity="0.3"
         offset="100%"
         stop-color="#708dff"
         id="stop8" />
    </linearGradient>
  </defs>
  <g
     transform="matrix(0.70268296,0,0,0.23936582,91.108303,301.71535)"
     visibility="hidden"
     id="i1">
    <rect
       y="0"
       x="0"
       fill="#000000"
       height="1136"
       width="640"
       id="rect13" />
  </g>
  <g
     id="i2">
    <g
       transform="translate(326.299,568)"
       id="g24">
      <g
         transform="scale(0,0)"
         id="g22">
        <animateTransform
           repeatCount="indefinite"
           type="scale"
           attributeName="transform"
           dur="3.036s"
           begin="0s"
           calcMode="spline"
           values="0 0; 3.599 3.599; 3.449 3.449; 3.499 3.499; 3.499 3.499"
           keyTimes="0; 0.10989; 0.142857; 0.186813; 1"
           keySplines="0 0 1 1; 0 0 1 1; 0 0 1 1; 0 0 1 1"
           fill="freeze" />
        <g
           transform="translate(-47.5,-20)"
           id="g20">
          <g
             transform="matrix(0.235,0,0,0.235,49.612,22.112)"
             id="i3">
            <g
               id="i4"
               transform="matrix(1,0,0,1,-2.041,-2.053)">
              <rect
                 ry="26"
                 rx="26"
                 height="165.895"
                 width="401.918"
                 y="-82.948"
                 x="-200.959"
                 stroke-width="0"
                 stroke="#ffffff"
                 fill="#e8e8e8"
                 id="rect16" />
            </g>
          </g>
        </g>
      </g>
    </g>
  </g>
  <g
     opacity="0"
     id="g75">
    <animate
       repeatCount="indefinite"
       attributeName="opacity"
       dur="3.036s"
       begin="0s"
       fill="freeze"
       values="0; 1; 1"
       keyTimes="0; 0.10989; 1"
       keySplines="0 0 1 1; 0 0 1 1"
       calcMode="spline" />
    <g
       transform="translate(326.299,568)"
       id="g73">
      <g
         transform="scale(0,0)"
         id="g71">
        <animateTransform
           repeatCount="indefinite"
           type="scale"
           attributeName="transform"
           dur="3.036s"
           begin="0s"
           calcMode="spline"
           values="0 0; 3.599 3.599; 3.449 3.449; 3.499 3.499; 3.499 3.499"
           keyTimes="0; 0.10989; 0.142857; 0.186813; 1"
           keySplines="0 0 1 1; 0 0 1 1; 0 0 1 1; 0 0 1 1"
           fill="freeze" />
        <g
           transform="translate(-47.5,-20)"
           id="g69">
          <g
             id="i5"
             transform="matrix(1,0,0,1,47.362,19.705)">
            <path
               fill="#fafbff"
               d="M47.363,13.634C47.363,16.987,44.645,19.705,41.292,19.705C41.292,19.705,-41.292,19.705,-41.292,19.705C-44.645,19.705,-47.363,16.987,-47.363,13.634C-47.363,13.634,-47.363,-13.634,-47.363,-13.634C-47.363,-16.987,-44.645,-19.705,-41.292,-19.705C-41.292,-19.705,41.292,-19.705,41.292,-19.705C44.645,-19.705,47.363,-16.987,47.363,-13.634C47.363,-13.634,47.363,13.634,47.363,13.634Z"
               id="path27" />
          </g>
          <g
             id="i6"
             transform="matrix(1,0,0,1,23.446,4.92)">
            <path
               fill="#dbe2ff"
               d="M3.803,0C3.803,0.601,3.316,1.087,2.716,1.087C2.716,1.087,-2.716,1.087,-2.716,1.087C-3.316,1.087,-3.803,0.601,-3.803,0C-3.803,-0.6,-3.316,-1.087,-2.716,-1.087C-2.716,-1.087,2.716,-1.087,2.716,-1.087C3.316,-1.087,3.803,-0.6,3.803,0Z"
               id="path30" />
          </g>
          <g
             id="i7"
             transform="matrix(1,0,0,1,71.279,4.92)">
            <path
               fill="#dbe2ff"
               d="M3.803,0C3.803,0.601,3.315,1.087,2.715,1.087C2.715,1.087,-2.715,1.087,-2.715,1.087C-3.316,1.087,-3.803,0.601,-3.803,0C-3.803,-0.6,-3.316,-1.087,-2.715,-1.087C-2.715,-1.087,2.715,-1.087,2.715,-1.087C3.315,-1.087,3.803,-0.6,3.803,0Z"
               id="path33" />
          </g>
          <g
             id="i8"
             transform="matrix(1,0,0,1,8.125,20.828)">
            <path
               fill="#92a7fe"
               fill-rule="evenodd"
               d="M5.598,10.708C5.598,10.708,5.598,11.195,5.598,11.195C4.044,11.195,3.047,11.184,2.607,11.16C2.56,11.16,2.503,11.137,2.434,11.09C2.364,11.044,2.329,10.998,2.329,10.951C2.143,9.955,1.959,8.958,1.773,7.962C1.727,7.661,1.564,7.51,1.286,7.51C0.59,7.533,-0.279,7.533,-1.322,7.51C-1.554,7.51,-1.681,7.626,-1.704,7.857C-1.774,8.252,-1.981,9.353,-2.329,11.16C-2.329,11.16,-5.598,11.16,-5.598,11.16C-5.598,11.16,-5.598,11.055,-5.598,11.055C-5.598,11.055,-5.598,10.917,-5.598,10.917C-5.111,8.483,-4.856,7.243,-4.833,7.197C-4.764,6.779,-4.665,6.171,-4.538,5.372C-4.411,4.572,-4.324,3.998,-4.277,3.65C-4.208,3.28,-4.103,2.753,-3.964,2.068C-3.825,1.386,-3.732,0.916,-3.686,0.661C-3.616,0.243,-3.511,-0.366,-3.372,-1.165C-3.233,-1.965,-3.128,-2.55,-3.059,-2.921C-3.013,-3.13,-2.968,-3.36,-2.921,-3.615C-2.875,-3.87,-2.834,-4.097,-2.799,-4.294C-2.765,-4.491,-2.724,-4.717,-2.678,-4.973C-2.631,-5.227,-2.584,-5.446,-2.538,-5.632C-2.375,-6.536,-2.064,-8.182,-1.6,-10.568C-1.554,-10.869,-1.496,-11.05,-1.426,-11.107C-1.356,-11.165,-1.171,-11.195,-0.87,-11.195C-0.87,-11.195,1.182,-11.195,1.182,-11.195C1.529,-11.195,1.727,-11.021,1.773,-10.673C1.913,-9.954,2.202,-8.357,2.643,-5.876C2.643,-5.876,3.859,0.626,3.859,0.626C3.882,0.811,3.911,1.09,3.945,1.46C3.98,1.831,4.01,2.099,4.033,2.26C4.056,2.423,4.102,2.66,4.171,2.973C4.241,3.285,4.287,3.512,4.311,3.65C4.356,3.952,4.415,4.3,4.484,4.693C4.554,5.088,4.623,5.481,4.693,5.876C4.762,6.27,4.82,6.618,4.867,6.919C4.913,7.197,4.972,7.51,5.042,7.857C5.111,8.205,5.174,8.518,5.232,8.796C5.29,9.074,5.354,9.392,5.423,9.751C5.492,10.11,5.551,10.43,5.598,10.708ZM0.626,4.206C0.95,4.206,1.088,4.033,1.042,3.686C0.671,1.483,0.463,0.29,0.417,0.104C0.417,0.059,0.394,0.005,0.348,-0.053C0.301,-0.11,0.243,-0.174,0.173,-0.243C0.104,-0.313,0.058,-0.358,0.035,-0.382C0.012,-0.358,-0.03,-0.313,-0.087,-0.243C-0.146,-0.174,-0.192,-0.116,-0.227,-0.07C-0.261,-0.023,-0.279,0.035,-0.279,0.104C-0.372,0.452,-0.603,1.611,-0.973,3.581C-1.02,3.767,-1.031,3.905,-1.008,3.997C-0.985,4.09,-0.933,4.155,-0.852,4.189C-0.77,4.225,-0.625,4.242,-0.417,4.242C-0.417,4.242,-0.07,4.242,-0.07,4.242C-0.07,4.242,-0.07,4.206,-0.07,4.206C-0.07,4.206,0.626,4.206,0.626,4.206Z"
               id="path36" />
          </g>
          <g
             id="i9"
             transform="matrix(1,0,0,1,20.641,20.845)">
            <path
               fill="#92a7fe"
               fill-rule="evenodd"
               d="M5.632,-8.361C5.609,-5.069,5.609,-1.373,5.632,2.73C5.632,2.73,5.632,8.708,5.632,8.708C5.632,9.103,5.493,9.381,5.215,9.542C4.983,9.705,4.566,10.112,3.963,10.76C3.963,10.76,3.789,11.178,3.789,11.178C3.789,11.178,-5.632,11.178,-5.632,11.178C-5.632,11.178,-5.632,8.326,-5.632,8.326C-5.632,8.235,-5.621,8.165,-5.597,8.118C-5.574,8.071,-5.54,8.03,-5.493,7.995C-5.447,7.961,-5.389,7.956,-5.32,7.979C-5.157,7.979,-5.036,7.974,-4.954,7.962C-4.873,7.95,-4.815,7.898,-4.781,7.805C-4.746,7.713,-4.728,7.572,-4.728,7.387C-4.728,6.97,-4.705,6.367,-4.659,5.579C-4.613,4.791,-4.589,4.237,-4.589,3.911C-4.589,3.911,-4.624,-4.154,-4.624,-4.154C-4.624,-5.684,-4.613,-6.831,-4.589,-7.596C-4.589,-7.781,-4.624,-7.91,-4.694,-7.979C-4.763,-8.049,-4.891,-8.072,-5.076,-8.049C-5.354,-8.003,-5.493,-8.141,-5.493,-8.467C-5.47,-9.231,-5.47,-9.995,-5.493,-10.76C-5.493,-11.038,-5.366,-11.178,-5.111,-11.178C-5.111,-11.178,3.615,-11.178,3.615,-11.178C3.731,-11.039,3.934,-10.817,4.224,-10.516C4.513,-10.215,4.739,-9.984,4.902,-9.822C4.994,-9.729,5.087,-9.637,5.18,-9.544C5.481,-9.312,5.632,-8.917,5.632,-8.361ZM2.364,6.902C2.387,6.438,2.387,5.742,2.364,4.816C2.364,4.816,2.364,2.764,2.364,2.764C2.364,2.023,2.004,1.616,1.286,1.547C0.73,1.501,0.156,1.501,-0.435,1.547C-1.026,1.594,-1.344,1.942,-1.391,2.59C-1.414,2.659,-1.42,2.799,-1.408,3.007C-1.397,3.216,-1.391,3.354,-1.391,3.424C-1.414,3.679,-1.431,4.038,-1.443,4.501C-1.455,4.965,-1.466,5.383,-1.478,5.753C-1.49,6.124,-1.507,6.484,-1.53,6.831C-1.53,7.596,-1.147,7.979,-0.383,7.979C-0.383,7.979,1.286,7.979,1.286,7.979C1.68,7.979,1.958,7.898,2.12,7.736C2.282,7.573,2.364,7.296,2.364,6.902ZM2.364,-2.66C2.364,-2.66,2.364,-4.415,2.364,-4.415C2.364,-4.415,2.364,-6.518,2.364,-6.518C2.364,-6.888,2.346,-7.156,2.312,-7.318C2.277,-7.48,2.184,-7.625,2.033,-7.753C1.883,-7.88,1.656,-7.945,1.356,-7.945C1.356,-7.945,-0.417,-7.945,-0.417,-7.945C-0.719,-7.945,-0.962,-7.852,-1.147,-7.667C-1.333,-7.481,-1.426,-7.237,-1.426,-6.936C-1.426,-6.936,-1.426,-6.258,-1.426,-6.258C-1.426,-6.258,-1.426,-5.441,-1.426,-5.441C-1.426,-5.441,-1.426,-4.745,-1.426,-4.745C-1.426,-4.745,-1.391,-4.745,-1.391,-4.745C-1.391,-4.745,-1.391,-2.555,-1.391,-2.555C-1.391,-1.93,-1.078,-1.605,-0.452,-1.583C-0.452,-1.583,1.286,-1.583,1.286,-1.583C1.982,-1.583,2.341,-1.941,2.364,-2.66Z"
               id="path39" />
          </g>
          <g
             id="i10"
             transform="matrix(1,0,0,1,33.139,20.787)">
            <path
               fill="#92a7fe"
               d="M2.312,6.646C4.004,7.064,5.105,7.33,5.615,7.445C5.615,7.468,5.551,7.602,5.424,7.846C5.296,8.089,5.209,8.268,5.163,8.383C4.815,9.195,4.351,9.839,3.771,10.314C3.192,10.79,2.485,11.062,1.651,11.131C0.469,11.248,-0.76,11.248,-2.035,11.131C-2.962,11.039,-3.854,10.447,-4.71,9.357C-5.313,8.592,-5.615,7.643,-5.615,6.507C-5.615,-0.005,-5.604,-4.282,-5.581,-6.322C-5.558,-8.523,-4.596,-10.031,-2.695,-10.842C-2.023,-11.143,-1.05,-11.247,0.225,-11.154C0.295,-11.154,0.429,-11.136,0.626,-11.102C0.823,-11.067,0.968,-11.062,1.061,-11.085C2.683,-11.177,3.968,-10.459,4.919,-8.93C5.011,-8.767,5.174,-8.361,5.406,-7.712C5.499,-7.48,5.406,-7.33,5.128,-7.26C4.896,-7.213,3.991,-6.995,2.415,-6.6C2.207,-7.597,1.605,-8.06,0.609,-7.99C0.099,-7.944,-0.343,-7.944,-0.713,-7.99C-1.247,-8.037,-1.664,-7.891,-1.965,-7.555C-2.267,-7.219,-2.417,-6.797,-2.417,-6.288C-2.394,-4.526,-2.382,-1.362,-2.382,3.204C-2.382,3.899,-2.394,4.954,-2.417,6.368C-2.417,6.623,-2.381,6.861,-2.312,7.081C-2.242,7.301,-2.138,7.481,-1.999,7.62C-1.86,7.759,-1.687,7.869,-1.478,7.95C-1.27,8.032,-1.025,8.072,-0.747,8.072C-0.747,8.072,-0.331,8.072,-0.331,8.072C-0.331,8.072,0.191,8.072,0.191,8.072C0.191,8.072,0.643,8.072,0.643,8.072C1.013,8.049,1.303,7.996,1.512,7.915C1.72,7.833,1.882,7.701,1.999,7.514C2.114,7.33,2.219,7.041,2.312,6.646Z"
               id="path42" />
          </g>
          <g
             id="i11"
             transform="matrix(1,0,0,1,49.116,20.856)">
            <path
               fill="#92a7fe"
               d="M-2.529,0.214C-2.552,0.214,-2.628,0.197,-2.755,0.162C-2.883,0.127,-2.981,0.099,-3.05,0.075C-4.093,-0.203,-4.778,-0.388,-5.102,-0.481C-5.31,-0.527,-5.438,-0.573,-5.484,-0.62C-5.531,-0.666,-5.553,-0.806,-5.553,-1.037C-5.553,-1.037,-5.553,-10.737,-5.553,-10.737C-5.553,-10.922,-5.536,-11.032,-5.502,-11.067C-5.467,-11.101,-5.357,-11.119,-5.171,-11.119C-5.171,-11.119,5.363,-11.119,5.363,-11.119C5.363,-11.119,5.502,-11.119,5.502,-11.119C5.502,-11.119,5.502,-7.956,5.502,-7.956C5.502,-7.956,5.224,-7.956,5.224,-7.956C5.224,-7.956,-1.521,-7.956,-1.521,-7.956C-1.799,-7.956,-2.002,-7.891,-2.129,-7.765C-2.257,-7.637,-2.321,-7.434,-2.321,-7.156C-2.321,-7.156,-2.321,-5.035,-2.321,-5.035C-2.321,-4.78,-2.263,-4.6,-2.147,-4.496C-2.031,-4.392,-1.845,-4.34,-1.591,-4.34C-1.591,-4.34,0.774,-4.34,0.774,-4.34C1.492,-4.293,2.06,-4.201,2.477,-4.061C3.149,-3.853,3.671,-3.528,4.042,-3.089C4.088,-3.018,4.169,-2.926,4.285,-2.81C4.401,-2.694,4.511,-2.578,4.616,-2.463C4.72,-2.347,4.783,-2.277,4.806,-2.254C5.316,-1.582,5.559,-0.735,5.537,0.284C5.537,0.284,5.537,2.474,5.537,2.474C5.537,2.637,5.542,2.839,5.554,3.082C5.566,3.326,5.577,3.552,5.589,3.761C5.6,3.969,5.595,4.166,5.572,4.352C5.548,5.557,5.49,6.402,5.398,6.89C5.282,7.609,4.934,8.338,4.355,9.08C3.59,10.007,2.628,10.621,1.469,10.922C1.121,11.016,0.588,11.073,-0.13,11.096C-0.617,11.119,-1.011,11.096,-1.312,11.027C-1.521,10.981,-1.881,10.83,-2.39,10.574C-3.966,9.833,-4.951,8.64,-5.345,6.994C-5.368,6.901,-5.438,6.519,-5.553,5.847C-5.6,5.661,-5.508,5.557,-5.276,5.533C-5.183,5.511,-4.91,5.459,-4.459,5.377C-4.007,5.296,-3.607,5.221,-3.259,5.151C-2.911,5.082,-2.68,5.059,-2.564,5.082C-2.425,5.082,-2.344,5.163,-2.321,5.325C-2.274,5.835,-2.216,6.218,-2.147,6.473C-1.985,7.098,-1.555,7.55,-0.86,7.828C-0.49,7.944,-0.119,7.962,0.252,7.88C0.623,7.799,0.907,7.706,1.104,7.603C1.301,7.498,1.434,7.411,1.504,7.342C2.037,6.855,2.304,6.345,2.304,5.812C2.304,5.626,2.315,5.105,2.338,4.247C2.361,3.39,2.373,2.73,2.373,2.266C2.373,1.57,2.35,0.829,2.304,0.04C2.28,-0.075,2.199,-0.249,2.06,-0.481C1.805,-0.921,1.306,-1.153,0.565,-1.177C-0.014,-1.177,-0.652,-1.153,-1.347,-1.106C-1.44,-1.083,-1.527,-1.049,-1.608,-1.003C-1.689,-0.956,-1.758,-0.909,-1.816,-0.863C-1.874,-0.816,-1.944,-0.753,-2.025,-0.672C-2.106,-0.591,-2.158,-0.527,-2.181,-0.481C-2.298,-0.388,-2.39,-0.284,-2.46,-0.168C-2.46,-0.144,-2.483,-0.017,-2.529,0.214Z"
               id="path45" />
          </g>
          <g
             id="i12"
             transform="matrix(1,0,0,1,61.629,21.002)">
            <path
               fill="#92a7fe"
               fill-rule="evenodd"
               d="M5.331,4.276C5.331,4.276,5.365,4.728,5.365,4.728C5.388,4.913,5.413,5.192,5.436,5.562C5.413,6.768,5.052,7.845,4.357,8.795C3.871,9.468,3.268,9.989,2.549,10.36C1.993,10.685,1.403,10.893,0.777,10.986C0.476,11.009,0.197,11.021,-0.058,11.021C-1.496,11.021,-2.741,10.539,-3.795,9.577C-4.851,8.616,-5.436,7.416,-5.551,5.98C-5.551,5.98,-5.551,5.875,-5.551,5.875C-5.551,5.875,-5.551,5.788,-5.551,5.788C-5.551,5.788,-5.551,5.701,-5.551,5.701C-5.575,4.983,-5.551,4.195,-5.482,3.337C-5.482,3.337,-5.482,3.302,-5.482,3.302C-5.482,3.256,-5.47,3.21,-5.447,3.163C-5.401,2.723,-5.308,2.259,-5.169,1.773C-5.146,1.633,-5.11,1.419,-5.064,1.129C-5.018,0.84,-4.971,0.637,-4.924,0.521C-4.716,-0.406,-4.555,-1.032,-4.439,-1.356C-4.208,-1.959,-3.906,-2.642,-3.535,-3.408C-3.048,-4.428,-2.539,-5.261,-2.005,-5.911C-1.588,-6.421,-1.135,-6.976,-0.648,-7.58C-0.208,-8.136,0.093,-8.483,0.256,-8.623C0.464,-8.807,0.77,-9.062,1.176,-9.387C1.581,-9.712,1.854,-9.931,1.993,-10.048C2.016,-10.094,2.039,-10.117,2.062,-10.117C2.178,-10.187,2.353,-10.291,2.585,-10.43C2.816,-10.569,3.002,-10.674,3.141,-10.743C3.141,-10.743,3.176,-10.743,3.176,-10.743C3.431,-10.928,3.719,-11.021,4.044,-11.021C4.461,-11.021,4.82,-10.87,5.122,-10.569C5.423,-10.268,5.575,-9.909,5.575,-9.492C5.575,-9.144,5.482,-8.831,5.297,-8.553C5.227,-8.46,5.168,-8.39,5.122,-8.344C5.075,-8.275,4.833,-8.078,4.393,-7.754C4.346,-7.683,4.254,-7.608,4.115,-7.527C3.976,-7.446,3.894,-7.383,3.872,-7.336C3.802,-7.266,3.732,-7.209,3.663,-7.162C3.593,-7.116,3.534,-7.081,3.488,-7.058C2.978,-6.595,2.643,-6.293,2.48,-6.154C2.364,-6.085,2.249,-5.986,2.133,-5.858C2.017,-5.731,1.913,-5.621,1.82,-5.528C1.727,-5.435,1.623,-5.32,1.507,-5.18C1.391,-5.042,1.286,-4.926,1.193,-4.833C1.193,-4.809,1.125,-4.694,0.986,-4.485C0.962,-4.485,0.817,-4.277,0.551,-3.859C0.285,-3.442,0.07,-3.14,-0.092,-2.956C-0.533,-2.352,-0.858,-1.646,-1.066,-0.835C-1.136,-0.556,-1.079,-0.337,-0.893,-0.175C-0.753,-0.058,-0.556,0.023,-0.301,0.069C-0.254,0.046,-0.174,0.034,-0.058,0.034C0.706,0.034,1.437,0.197,2.133,0.521C2.388,0.614,2.619,0.73,2.827,0.868C3.406,1.239,3.916,1.703,4.357,2.259C4.357,2.282,4.375,2.312,4.41,2.346C4.445,2.381,4.474,2.41,4.497,2.433C4.821,2.827,5.018,3.152,5.087,3.406C5.087,3.43,5.104,3.493,5.139,3.598C5.174,3.702,5.215,3.823,5.262,3.963C5.308,4.102,5.331,4.206,5.331,4.276ZM0.081,7.718C0.475,7.718,0.852,7.614,1.212,7.405C1.571,7.197,1.849,6.918,2.046,6.571C2.243,6.223,2.342,5.84,2.342,5.423C2.342,4.797,2.12,4.264,1.68,3.823C1.24,3.384,0.702,3.163,0.064,3.163C-0.573,3.163,-1.113,3.384,-1.553,3.823C-1.994,4.264,-2.214,4.797,-2.214,5.423C-2.214,5.933,-2.063,6.385,-1.762,6.779C-1.623,7.057,-1.391,7.266,-1.066,7.405C-0.696,7.614,-0.314,7.718,0.081,7.718Z"
               id="path48" />
          </g>
          <g
             id="i13"
             transform="matrix(1,0,0,1,74.504,20.706)">
            <path
               fill="#92a7fe"
               d="M-5.562,11.212C-5.47,10.934,-5.32,10.499,-5.111,9.908C-4.902,9.317,-4.741,8.859,-4.625,8.535C-4.485,8.141,-4.265,7.498,-3.964,6.606C-3.663,5.713,-3.419,5.035,-3.233,4.571C-3.164,4.34,-3.054,4.016,-2.903,3.598C-2.753,3.181,-2.643,2.857,-2.573,2.624C-2.503,2.44,-2.405,2.144,-2.277,1.738C-2.15,1.333,-2.052,1.037,-1.982,0.852C-1.866,0.527,-1.699,0.058,-1.478,-0.557C-1.258,-1.171,-1.09,-1.64,-0.974,-1.965C-0.904,-2.173,-0.8,-2.486,-0.661,-2.903C-0.522,-3.32,-0.417,-3.621,-0.348,-3.808C-0.302,-3.969,-0.238,-4.16,-0.157,-4.381C-0.076,-4.601,0.006,-4.815,0.087,-5.024C0.168,-5.232,0.232,-5.418,0.279,-5.58C0.371,-5.835,0.499,-6.206,0.661,-6.692C0.823,-7.18,0.916,-7.469,0.939,-7.561C0.985,-7.678,0.979,-7.782,0.921,-7.875C0.863,-7.967,0.777,-8.014,0.661,-8.014C0.058,-8.037,-0.823,-8.037,-1.982,-8.014C-2.214,-8.014,-2.33,-7.887,-2.33,-7.632C-2.33,-7.632,-2.33,-6.101,-2.33,-6.101C-2.33,-6.101,-2.33,-5.789,-2.33,-5.789C-2.33,-5.789,-4.068,-5.789,-4.068,-5.789C-4.068,-5.789,-4.451,-5.789,-4.451,-5.789C-4.451,-5.789,-4.902,-5.789,-4.902,-5.789C-4.902,-5.789,-5.285,-5.789,-5.285,-5.789C-5.471,-5.766,-5.562,-5.87,-5.562,-6.101C-5.562,-6.101,-5.562,-10.83,-5.562,-10.83C-5.562,-11.016,-5.545,-11.125,-5.511,-11.16C-5.476,-11.195,-5.378,-11.212,-5.215,-11.212C-5.215,-11.212,4.798,-11.212,4.798,-11.212C4.798,-11.212,5.562,-11.212,5.562,-11.212C5.423,-10.702,5.331,-10.366,5.285,-10.204C5.123,-9.787,4.907,-9.179,4.641,-8.379C4.374,-7.579,4.207,-7.11,4.137,-6.971C4.02,-6.6,3.835,-6.055,3.581,-5.337C3.325,-4.618,3.141,-4.085,3.025,-3.737C2.909,-3.436,2.746,-2.978,2.538,-2.364C2.329,-1.75,2.178,-1.28,2.085,-0.956C1.946,-0.562,1.727,0.046,1.426,0.869C1.125,1.691,0.904,2.312,0.766,2.729C0.626,3.146,0.429,3.732,0.174,4.484C-0.081,5.238,-0.267,5.766,-0.383,6.066C-0.522,6.483,-0.725,7.08,-0.991,7.857C-1.258,8.634,-1.426,9.126,-1.495,9.334C-1.542,9.404,-1.629,9.636,-1.756,10.029C-1.884,10.424,-1.994,10.725,-2.086,10.934C-2.133,11.072,-2.237,11.143,-2.399,11.143C-2.562,11.143,-2.811,11.154,-3.146,11.177C-3.483,11.2,-3.744,11.212,-3.929,11.212C-3.929,11.212,-5.562,11.212,-5.562,11.212Z"
               id="path51" />
          </g>
          <g
             id="i14"
             transform="matrix(1,0,0,1,86.672,20.886)">
            <path
               fill="#92a7fe"
               fill-rule="evenodd"
               d="M5.562,-4.752C5.562,-3.314,4.983,-2.167,3.825,-1.31C4.983,-0.498,5.562,0.626,5.562,2.063C5.562,2.063,5.562,6.93,5.562,6.93C5.562,7.672,5.382,8.361,5.023,8.998C4.664,9.636,4.166,10.14,3.529,10.511C2.891,10.882,2.19,11.066,1.426,11.066C1.426,11.066,0.417,11.066,0.417,11.066C0.046,11.09,-0.359,11.102,-0.799,11.102C-1.008,11.102,-1.183,11.09,-1.322,11.066C-1.322,11.066,-1.426,11.066,-1.426,11.066C-2.585,11.066,-3.564,10.661,-4.364,9.85C-5.164,9.039,-5.562,8.065,-5.562,6.93C-5.562,6.93,-5.562,2.063,-5.562,2.063C-5.562,0.811,-5.1,-0.221,-4.172,-1.032C-4.15,-1.055,-4.127,-1.084,-4.103,-1.119C-4.08,-1.153,-4.063,-1.188,-4.051,-1.223C-4.04,-1.258,-4.022,-1.293,-3.999,-1.327C-3.976,-1.362,-3.964,-1.391,-3.964,-1.414C-5.03,-2.271,-5.562,-3.384,-5.562,-4.752C-5.562,-4.752,-5.562,-6.838,-5.562,-6.838C-5.562,-7.812,-5.268,-8.681,-4.677,-9.445C-4.086,-10.21,-3.327,-10.708,-2.399,-10.94C-2.26,-10.986,-2.099,-11.021,-1.913,-11.044C-1.797,-11.044,-1.704,-11.056,-1.635,-11.079C-1.635,-11.079,-1.287,-11.079,-1.287,-11.079C-0.082,-11.102,0.729,-11.102,1.146,-11.079C1.146,-11.079,1.39,-11.079,1.39,-11.079C1.853,-11.079,2.306,-10.998,2.747,-10.836C3.187,-10.674,3.58,-10.459,3.928,-10.192C4.275,-9.926,4.578,-9.602,4.833,-9.219C5.087,-8.837,5.285,-8.425,5.424,-7.985C5.424,-7.938,5.435,-7.869,5.458,-7.776C5.528,-7.475,5.562,-7.174,5.562,-6.872C5.562,-6.872,5.562,-4.752,5.562,-4.752ZM-1.148,-2.979C-1.148,-2.979,1.042,-2.979,1.042,-2.979C1.251,-2.979,1.448,-3.031,1.633,-3.135C1.819,-3.239,1.969,-3.39,2.085,-3.587C2.201,-3.784,2.26,-3.987,2.26,-4.195C2.26,-4.195,2.26,-4.404,2.26,-4.404C2.26,-4.404,2.26,-5.481,2.26,-5.481C2.26,-5.481,2.26,-6.143,2.26,-6.143C2.26,-6.143,2.26,-6.664,2.26,-6.664C2.26,-7.012,2.139,-7.301,1.895,-7.533C1.652,-7.765,1.367,-7.881,1.042,-7.881C1.042,-7.881,-1.113,-7.881,-1.113,-7.881C-1.252,-7.881,-1.38,-7.869,-1.496,-7.846C-1.704,-7.776,-1.867,-7.672,-1.982,-7.533C-2.238,-7.301,-2.365,-7.012,-2.365,-6.664C-2.365,-6.664,-2.365,-5.899,-2.365,-5.899C-2.365,-5.899,-2.365,-4.995,-2.365,-4.995C-2.365,-4.995,-2.365,-4.369,-2.365,-4.369C-2.365,-4.369,-2.365,-4.195,-2.365,-4.195C-2.365,-3.848,-2.243,-3.558,-2,-3.326C-1.756,-3.095,-1.473,-2.979,-1.148,-2.979ZM-1.148,7.834C-1.148,7.834,1.008,7.834,1.008,7.834C1.355,7.834,1.646,7.712,1.878,7.469C2.109,7.226,2.225,6.941,2.225,6.617C2.225,6.617,2.225,1.437,2.225,1.437C2.225,1.112,2.109,0.828,1.878,0.585C1.646,0.342,1.355,0.22,1.008,0.22C1.008,0.22,-1.148,0.22,-1.148,0.22C-1.356,0.22,-1.554,0.272,-1.739,0.376C-1.925,0.48,-2.075,0.632,-2.191,0.828C-2.307,1.025,-2.365,1.228,-2.365,1.437C-2.365,1.437,-2.365,6.617,-2.365,6.617C-2.365,6.918,-2.255,7.19,-2.035,7.434C-1.815,7.677,-1.554,7.811,-1.252,7.834C-1.252,7.834,-1.217,7.834,-1.217,7.834C-1.217,7.834,-1.148,7.834,-1.148,7.834Z"
               id="path54" />
          </g>
          <g
             id="i15"
             transform="matrix(1,0,0,1,40.846,21.098)">
            <path
               fill="#92a7fe"
               d="M1.435,1.394C1.435,1.394,-1.434,1.394,-1.434,1.394C-1.434,1.394,-1.434,-1.393,-1.434,-1.393C-1.434,-1.393,1.435,-1.393,1.435,-1.393C1.435,-1.393,1.435,1.394,1.435,1.394Z"
               id="path57" />
          </g>
          <g
             id="i16"
             transform="matrix(1,0,0,1,23.542,35.162)">
            <path
               fill="#dbe2ff"
               d="M1.814,-0.238C1.814,-0.659,1.473,-1.001,1.051,-1.001C0.944,-1.001,0.842,-0.977,0.75,-0.937C0.752,-0.959,0.762,-0.978,0.762,-1.001C0.762,-1.422,0.421,-1.762,0,-1.762C-0.421,-1.762,-0.763,-1.422,-0.763,-1.001C-0.763,-0.978,-0.752,-0.959,-0.75,-0.937C-0.843,-0.977,-0.944,-1.001,-1.052,-1.001C-1.473,-1.001,-1.814,-0.659,-1.814,-0.238C-1.814,0.13,-1.548,0.424,-1.201,0.495C-1.322,0.631,-1.401,0.805,-1.401,1.001C-1.401,1.422,-1.06,1.762,-0.639,1.762C-0.368,1.762,-0.142,1.615,-0.007,1.402C0.128,1.615,0.355,1.762,0.626,1.762C1.046,1.762,1.388,1.422,1.388,1.001C1.388,0.806,1.31,0.632,1.189,0.497C1.542,0.43,1.814,0.134,1.814,-0.238Z"
               id="path60" />
          </g>
          <g
             id="i17"
             transform="matrix(1,0,0,1,47.363,35.162)">
            <path
               fill="#dbe2ff"
               d="M1.814,-0.238C1.814,-0.659,1.473,-1.001,1.051,-1.001C0.944,-1.001,0.842,-0.977,0.75,-0.937C0.752,-0.959,0.763,-0.978,0.763,-1.001C0.763,-1.422,0.421,-1.762,0,-1.762C-0.421,-1.762,-0.763,-1.422,-0.763,-1.001C-0.763,-0.978,-0.752,-0.959,-0.75,-0.937C-0.843,-0.977,-0.944,-1.001,-1.052,-1.001C-1.473,-1.001,-1.814,-0.659,-1.814,-0.238C-1.814,0.13,-1.548,0.424,-1.201,0.495C-1.322,0.631,-1.401,0.805,-1.401,1.001C-1.401,1.422,-1.06,1.762,-0.639,1.762C-0.368,1.762,-0.142,1.615,-0.007,1.402C0.129,1.615,0.355,1.762,0.626,1.762C1.047,1.762,1.388,1.422,1.388,1.001C1.388,0.806,1.31,0.632,1.189,0.497C1.542,0.43,1.814,0.134,1.814,-0.238Z"
               id="path63" />
          </g>
          <g
             id="i18"
             transform="matrix(1,0,0,1,71.184,35.162)">
            <path
               fill="#dbe2ff"
               d="M1.814,-0.238C1.814,-0.659,1.473,-1.001,1.051,-1.001C0.944,-1.001,0.842,-0.977,0.75,-0.937C0.751,-0.959,0.762,-0.978,0.762,-1.001C0.762,-1.422,0.421,-1.762,0,-1.762C-0.421,-1.762,-0.763,-1.422,-0.763,-1.001C-0.763,-0.978,-0.752,-0.959,-0.75,-0.937C-0.843,-0.977,-0.945,-1.001,-1.052,-1.001C-1.473,-1.001,-1.814,-0.659,-1.814,-0.238C-1.814,0.13,-1.548,0.424,-1.201,0.495C-1.323,0.631,-1.402,0.805,-1.402,1.001C-1.402,1.422,-1.061,1.762,-0.639,1.762C-0.369,1.762,-0.143,1.615,-0.007,1.402C0.128,1.615,0.355,1.762,0.626,1.762C1.046,1.762,1.388,1.422,1.388,1.001C1.388,0.806,1.309,0.632,1.189,0.497C1.542,0.43,1.814,0.134,1.814,-0.238Z"
               id="path66" />
          </g>
        </g>
      </g>
    </g>
  </g>
  <g
     opacity="0"
     id="i19">
    <animate
       repeatCount="indefinite"
       attributeName="opacity"
       dur="3.036s"
       begin="0s"
       fill="freeze"
       values="0; 0; 1; 1; 0; 0"
       keyTimes="0; 0.153846; 0.186813; 0.593407; 0.626374; 1"
       keySplines="0 0 1 1; 0 0 1 1; 0 0 1 1; 0 0 1 1; 0 0 1 1"
       calcMode="spline" />
    <g
       transform="translate(327.299,568)"
       id="g97">
      <g
         transform="scale(2,2)"
         id="g95">
        <animateTransform
           repeatCount="indefinite"
           type="scale"
           attributeName="transform"
           dur="3.036s"
           begin="0s"
           calcMode="spline"
           values="2 2; 2 2; 3.5 3.5; 3.41 3.41; 3.41 3.41"
           keyTimes="0; 0.153846; 0.208791; 0.241758; 1"
           keySplines="0 0 1 1; 0 0 1 1; 0 0 1 1; 0 0 1 1"
           fill="freeze" />
        <g
           transform="translate(-59.5,-29)"
           id="g93">
          <g
             id="g79"
             transform="matrix(1,0,0,1,10.274,9.08)">
            <path
               stroke-miterlimit="10"
               stroke-width="1"
               stroke="#2149e8"
               d="M-7.301,7.301C-7.301,7.301,-7.301,3.021,-7.301,3.021C-7.301,-2.656,-2.657,-7.301,3.02,-7.301C3.02,-7.301,7.301,-7.301,7.301,-7.301"
               id="path77" />
          </g>
          <g
             id="g83"
             transform="matrix(1,0,0,1,107.899,48.919)">
            <path
               stroke-miterlimit="10"
               stroke-width="1"
               stroke="#2149e8"
               d="M7.301,-7.301C7.301,-7.301,7.301,-3.021,7.301,-3.021C7.301,2.656,2.656,7.301,-3.021,7.301C-3.021,7.301,-7.301,7.301,-7.301,7.301"
               id="path81" />
          </g>
          <g
             id="g87"
             transform="matrix(1,0,0,1,107.899,9.08)">
            <path
               stroke-miterlimit="10"
               stroke-width="1"
               stroke="#2149e8"
               d="M7.301,7.301C7.301,7.301,7.301,3.021,7.301,3.021C7.301,-2.656,2.656,-7.301,-3.021,-7.301C-3.021,-7.301,-7.301,-7.301,-7.301,-7.301"
               id="path85" />
          </g>
          <g
             id="g91"
             transform="matrix(1,0,0,1,10.274,48.919)">
            <path
               stroke-miterlimit="10"
               stroke-width="1"
               stroke="#2149e8"
               d="M-7.301,-7.301C-7.301,-7.301,-7.301,-3.021,-7.301,-3.021C-7.301,2.656,-2.657,7.301,3.02,7.301C3.02,7.301,7.301,7.301,7.301,7.301"
               id="path89" />
          </g>
        </g>
      </g>
    </g>
  </g>
  <g
     id="i20">
    <g
       transform="translate(217,568)"
       id="g113">
      <animateTransform
         repeatCount="indefinite"
         type="translate"
         attributeName="transform"
         dur="3.036s"
         begin="0s"
         calcMode="spline"
         values="217 568; 217 568; 452 568; 487 568; 487 568; 217 568; 217 568"
         keyTimes="0; 0.241758; 0.340659; 0.384615; 0.428571; 0.626374; 1"
         keySplines="0 0 1 1; 0 0 1 1; 0 0 1 1; 0 0 1 1; 0 0 1 1; 0 0 1 1"
         fill="freeze" />
      <g
         transform="scale(1,1) translate(-134,0)"
         id="g111">
        <g
           opacity="0"
           id="i21">
          <animate
             repeatCount="indefinite"
             attributeName="opacity"
             dur="3.036s"
             begin="0s"
             fill="freeze"
             values="0; 0; 1; 1; 0; 0; 1; 0; 0"
             keyTimes="0; 0.208791; 0.274725; 0.362637; 0.373626; 0.450549; 0.472527; 0.626374; 1"
             keySplines="0 0 1 1; 0 0 1 1; 0 0 1 1; 0 0 1 1; 0 0 1 1; 0 0 1 1; 0 0 1 1; 0 0 1 1"
             calcMode="spline" />
          <g
             transform="translate(82.261,0)"
             id="g108">
            <animateTransform
               repeatCount="indefinite"
               type="translate"
               attributeName="transform"
               dur="3.036s"
               begin="0s"
               calcMode="spline"
               values="82.261 0; 82.261 0; 89.261 0; 82.961 0; 183.752 0; 183.752 0"
               keyTimes="0; 0.241758; 0.340659; 0.362637; 0.384615; 1"
               keySplines="0 0 1 1; 0 0 1 1; 0 0 1 1; 0 0 1 1; 0 0 1 1"
               fill="freeze" />
            <g
               transform="rotate(0)"
               id="g106">
              <animateTransform
                 repeatCount="indefinite"
                 type="rotate"
                 attributeName="transform"
                 dur="3.036s"
                 begin="0s"
                 calcMode="spline"
                 values="0; 0; -180; -180"
                 keyTimes="0; 0.362637; 0.384615; 1"
                 keySplines="0 0 1 1; 0 0 1 1; 0 0 1 1"
                 fill="freeze" />
              <g
                 transform="scale(0.248,0.124) translate(769.209,0)"
                 id="g104">
                <g
                   id="g102"
                   transform="matrix(0.709,0,0,1.355,-764.977,-3.594)">
                  <rect
                     height="1098.031"
                     width="561.266"
                     y="-549.015"
                     x="-280.633"
                     stroke-width="0"
                     stroke="#ffffff"
                     fill="url(#i0)"
                     id="rect100" />
                </g>
              </g>
            </g>
          </g>
        </g>
      </g>
    </g>
  </g>
  <g
     opacity="0"
     id="g123">
    <animate
       repeatCount="indefinite"
       attributeName="opacity"
       dur="3.036s"
       begin="0s"
       fill="freeze"
       values="0; 0; 1; 1; 0; 0"
       keyTimes="0; 0.208791; 0.274725; 0.362637; 0.626374; 1"
       keySplines="0 0 1 1; 0 0 1 1; 0 0 1 1; 0 0 1 1; 0 0 1 1"
       calcMode="spline" />
    <g
       transform="translate(217,568)"
       id="g121">
      <animateTransform
         repeatCount="indefinite"
         type="translate"
         attributeName="transform"
         dur="3.036s"
         begin="0s"
         calcMode="spline"
         values="217 568; 217 568; 452 568; 487 568; 487 568; 217 568; 217 568"
         keyTimes="0; 0.241758; 0.340659; 0.384615; 0.428571; 0.626374; 1"
         keySplines="0 0 1 1; 0 0 1 1; 0 0 1 1; 0 0 1 1; 0 0 1 1; 0 0 1 1"
         fill="freeze" />
      <g
         transform="scale(1,1) translate(-134,0)"
         id="g119">
        <g
           id="i22">
          <path
             stroke-width="3"
             stroke="#2149e8"
             fill="#e8e8e8"
             d="M134,-93C134,-93,134,92,134,92"
             id="path116" />
        </g>
      </g>
    </g>
  </g>
  <g
     opacity="0"
     id="i23">
    <animate
       repeatCount="indefinite"
       attributeName="opacity"
       dur="3.036s"
       begin="0s"
       fill="freeze"
       values="0; 0; 1; 1"
       keyTimes="0; 0.67033; 0.78022; 1"
       keySplines="0 0 1 1; 0 0 1 1; 0 0 1 1"
       calcMode="spline" />
    <g
       transform="translate(483.786,637.294)"
       id="g137">
      <g
         transform="scale(0,0)"
         id="g135">
        <animateTransform
           repeatCount="indefinite"
           type="scale"
           attributeName="transform"
           dur="3.036s"
           begin="0s"
           calcMode="spline"
           values="0 0; 0 0; 1.3 1.3; 1.2 1.2; 1.2 1.2"
           keyTimes="0; 0.67033; 0.747253; 0.78022; 1"
           keySplines="0 0 1 1; 0 0 1 1; 0 0 1 1; 0 0 1 1"
           fill="freeze" />
        <g
           transform="translate(-47,-47)"
           id="g133">
          <g
             id="g127"
             transform="matrix(1,0,0,1,46.893,46.892)">
            <path
               fill="#42bdbd"
               d="M-46.893,-0.001C-46.893,25.662,-25.897,46.465,0.001,46.465C25.898,46.465,46.893,25.662,46.893,-0.001C46.893,-25.662,25.898,-46.465,0.001,-46.465C-25.897,-46.465,-46.893,-25.662,-46.893,-0.001Z"
               id="path125" />
          </g>
          <g
             id="g131"
             transform="matrix(1,0,0,1,47.563,46.795)">
            <path
               stroke-linejoin="round"
               stroke-linecap="round"
               stroke-width="7"
               stroke="#ffffff"
               d="M-17.14,0.189C-17.14,0.189,-5.839,11.57,-5.839,11.57C-5.839,11.57,17.14,-11.57,17.14,-11.57"
               id="path129" />
          </g>
        </g>
      </g>
    </g>
  </g>
  <g
     opacity="0"
     visibility="hidden"
     id="i24">
    <animate
       repeatCount="indefinite"
       attributeName="opacity"
       dur="3.036s"
       begin="0s"
       fill="freeze"
       values="0; 0; 1; 0; 0"
       keyTimes="0; 0.758242; 0.846154; 0.901099; 1"
       keySplines="0 0 1 1; 0 0 1 1; 0 0 1 1; 0 0 1 1"
       calcMode="spline" />
    <g
       transform="translate(532,647)"
       id="g147">
      <animateTransform
         repeatCount="indefinite"
         type="translate"
         attributeName="transform"
         dur="3.036s"
         begin="0s"
         calcMode="spline"
         values="532 647; 532 647; 574 592.5; 619.5 546; 619.5 546"
         keyTimes="0; 0.758242; 0.813187; 0.901099; 1"
         keySplines="0 0 1 1; 0 0 1 1; 0 0 1 1; 0 0 1 1"
         fill="freeze" />
      <g
         transform="scale(0.502,0.502)"
         id="g145">
        <animateTransform
           repeatCount="indefinite"
           type="scale"
           attributeName="transform"
           dur="3.036s"
           begin="0s"
           calcMode="spline"
           values="0.502 0.502; 0.502 0.502; 1 1; 0.502 0.502; 0.502 0.502"
           keyTimes="0; 0.758242; 0.846154; 0.901099; 1"
           keySplines="0 0 1 1; 0 0 1 1; 0 0 1 1; 0 0 1 1"
           fill="freeze" />
        <g
           transform="translate(176,122)"
           id="g143">
          <g
             id="i25"
             transform="matrix(1,0,0,1,-175.953,-123.953)">
            <ellipse
               ry="22.047"
               rx="22.047"
               cy="0"
               cx="0"
               stroke-width="0"
               stroke="#002b2b"
               fill="#42bdbd"
               id="ellipse140" />
          </g>
        </g>
      </g>
    </g>
  </g>
  <g
     opacity="0"
     visibility="hidden"
     id="i26">
    <animate
       repeatCount="indefinite"
       attributeName="opacity"
       dur="3.036s"
       begin="0s"
       fill="freeze"
       values="0; 0; 1; 0; 0"
       keyTimes="0; 0.758242; 0.846154; 0.901099; 1"
       keySplines="0 0 1 1; 0 0 1 1; 0 0 1 1; 0 0 1 1"
       calcMode="spline" />
    <g
       transform="translate(490,570)"
       id="g158">
      <animateTransform
         repeatCount="indefinite"
         type="translate"
         attributeName="transform"
         dur="3.036s"
         begin="0s"
         calcMode="spline"
         values="490 570; 490 570; 548.5 514; 618.5 466; 618.5 466"
         keyTimes="0; 0.758242; 0.813187; 0.901099; 1"
         keySplines="0 0 1 1; 0 0 1 1; 0 0 1 1; 0 0 1 1"
         fill="freeze" />
      <g
         transform="scale(0.502,0.502)"
         id="g156">
        <animateTransform
           repeatCount="indefinite"
           type="scale"
           attributeName="transform"
           dur="3.036s"
           begin="0s"
           calcMode="spline"
           values="0.502 0.502; 0.502 0.502; 1.21 1.21; 0.502 0.502; 0.502 0.502"
           keyTimes="0; 0.758242; 0.846154; 0.901099; 1"
           keySplines="0 0 1 1; 0 0 1 1; 0 0 1 1; 0 0 1 1"
           fill="freeze" />
        <g
           transform="translate(176,122)"
           id="g154">
          <g
             id="g152"
             transform="matrix(1,0,0,1,-175.953,-123.953)">
            <ellipse
               ry="22.047"
               rx="22.047"
               cy="0"
               cx="0"
               stroke-width="0"
               stroke="#002b2b"
               fill="#42bdbd"
               id="ellipse150" />
          </g>
        </g>
      </g>
    </g>
  </g>
  <g
     opacity="0"
     visibility="hidden"
     id="i27">
    <animate
       repeatCount="indefinite"
       attributeName="opacity"
       dur="3.036s"
       begin="0s"
       fill="freeze"
       values="0; 0; 1; 0; 0"
       keyTimes="0; 0.791209; 0.879121; 0.934066; 1"
       keySplines="0 0 1 1; 0 0 1 1; 0 0 1 1; 0 0 1 1"
       calcMode="spline" />
    <g
       transform="translate(458,670.5)"
       id="g169">
      <animateTransform
         repeatCount="indefinite"
         type="translate"
         attributeName="transform"
         dur="3.036s"
         begin="0s"
         calcMode="spline"
         values="458 670.5; 458 670.5; 395.5 718.5; 355.5 766; 355.5 766"
         keyTimes="0; 0.791209; 0.846154; 0.934066; 1"
         keySplines="0 0 1 1; 0 0 1 1; 0 0 1 1; 0 0 1 1"
         fill="freeze" />
      <g
         transform="scale(0.502,0.502)"
         id="g167">
        <animateTransform
           repeatCount="indefinite"
           type="scale"
           attributeName="transform"
           dur="3.036s"
           begin="0s"
           calcMode="spline"
           values="0.502 0.502; 0.502 0.502; 1 1; 0.502 0.502; 0.502 0.502"
           keyTimes="0; 0.791209; 0.879121; 0.934066; 1"
           keySplines="0 0 1 1; 0 0 1 1; 0 0 1 1; 0 0 1 1"
           fill="freeze" />
        <g
           transform="translate(176,122)"
           id="g165">
          <g
             id="g163"
             transform="matrix(1,0,0,1,-175.953,-123.953)">
            <ellipse
               ry="22.047"
               rx="22.047"
               cy="0"
               cx="0"
               stroke-width="0"
               stroke="#002b2b"
               fill="#42bdbd"
               id="ellipse161" />
          </g>
        </g>
      </g>
    </g>
  </g>
  <g
     opacity="0"
     visibility="hidden"
     id="i28">
    <animate
       repeatCount="indefinite"
       attributeName="opacity"
       dur="3.036s"
       begin="0s"
       fill="freeze"
       values="0; 0; 1; 0; 0"
       keyTimes="0; 0.791209; 0.879121; 0.934066; 1"
       keySplines="0 0 1 1; 0 0 1 1; 0 0 1 1; 0 0 1 1"
       calcMode="spline" />
    <g
       transform="translate(501.5,679)"
       id="g180">
      <animateTransform
         repeatCount="indefinite"
         type="translate"
         attributeName="transform"
         dur="3.036s"
         begin="0s"
         calcMode="spline"
         values="501.5 679; 501.5 679; 560 704.5; 616 733; 616 733"
         keyTimes="0; 0.791209; 0.846154; 0.934066; 1"
         keySplines="0 0 1 1; 0 0 1 1; 0 0 1 1; 0 0 1 1"
         fill="freeze" />
      <g
         transform="scale(0.154,0.154)"
         id="g178">
        <animateTransform
           repeatCount="indefinite"
           type="scale"
           attributeName="transform"
           dur="3.036s"
           begin="0s"
           calcMode="spline"
           values="0.154 0.154; 0.154 0.154; 0.652 0.652; 0.154 0.154; 0.154 0.154"
           keyTimes="0; 0.791209; 0.879121; 0.934066; 1"
           keySplines="0 0 1 1; 0 0 1 1; 0 0 1 1; 0 0 1 1"
           fill="freeze" />
        <g
           transform="translate(176,122)"
           id="g176">
          <g
             id="g174"
             transform="matrix(1,0,0,1,-175.953,-123.953)">
            <ellipse
               ry="22.047"
               rx="22.047"
               cy="0"
               cx="0"
               stroke-width="0"
               stroke="#002b2b"
               fill="#42bdbd"
               id="ellipse172" />
          </g>
        </g>
      </g>
    </g>
  </g>
</svg>
